<?xml version="1.0" encoding="utf-8"?>
<!-- Generator: Adobe Illustrator 26.0.2, SVG Export Plug-In . SVG Version: 6.00 Build 0)  -->
<svg version="1.1" id="Capa_1" xmlns="http://www.w3.org/2000/svg" xmlns:xlink="http://www.w3.org/1999/xlink" x="0px" y="0px"
	 viewBox="0 0 14 14" style="enable-background:new 0 0 14 14;" xml:space="preserve">
<style type="text/css">
	.st0{fill:#4680FD;}
</style>
<path class="st0" d="M12.9,6.48c-0.19,0.01-0.38,0-0.56,0c-0.33,0-0.65,0-0.99,0c0.03-0.05,0.05-0.09,0.07-0.12
	c0.16-0.28,0.32-0.56,0.48-0.84c0.07-0.12,0.11-0.24,0.08-0.38c-0.04-0.22-0.2-0.39-0.41-0.42c-0.23-0.04-0.43,0.05-0.55,0.26
	c-0.17,0.28-0.33,0.57-0.5,0.86c-0.02,0.04-0.03,0.09-0.08,0.11C10.17,5.48,9.9,5.01,9.62,4.53c0.06,0,0.11,0,0.15,0
	c0.35,0,0.71,0,1.06-0.01c0.25-0.01,0.43-0.21,0.45-0.47c0.02-0.25-0.14-0.47-0.39-0.53C10.8,3.49,10.7,3.5,10.61,3.5
	c-0.32,0-0.64,0-0.99,0c0.22-0.39,0.44-0.75,0.65-1.12c0.08-0.13,0.16-0.26,0.22-0.4c0.15-0.35-0.11-0.72-0.49-0.71
	c-0.21,0.01-0.35,0.12-0.46,0.3C9.27,2.03,9,2.5,8.73,2.98C8.7,2.93,8.68,2.89,8.65,2.86C8.49,2.57,8.32,2.28,8.15,2
	C8.02,1.78,7.8,1.68,7.58,1.74C7.25,1.82,7.09,2.18,7.25,2.48C7.42,2.8,7.6,3.1,7.77,3.41c0.02,0.03,0.05,0.05,0.03,0.08
	c-0.54,0-1.08,0-1.63,0c0.19-0.33,0.38-0.65,0.56-0.97c0.15-0.27,0.07-0.57-0.18-0.72C6.31,1.65,6,1.73,5.84,2
	C5.7,2.24,5.57,2.48,5.43,2.72C5.38,2.8,5.33,2.88,5.27,2.98C5.22,2.89,5.18,2.82,5.14,2.74c-0.23-0.4-0.46-0.8-0.69-1.19
	C4.28,1.26,3.95,1.17,3.7,1.35C3.46,1.51,3.4,1.79,3.56,2.07c0.25,0.44,0.5,0.87,0.75,1.3C4.33,3.41,4.36,3.44,4.36,3.5
	c-0.04,0-0.08,0-0.12,0c-0.33,0-0.67,0-1,0C2.94,3.5,2.72,3.72,2.71,4C2.7,4.28,2.91,4.5,3.2,4.52c0.17,0.01,0.35,0.01,0.52,0.01
	c0.21,0,0.42,0,0.66,0C4.1,5.02,3.83,5.48,3.55,5.96C3.53,5.92,3.5,5.88,3.48,5.84c-0.17-0.3-0.34-0.6-0.52-0.89
	C2.81,4.71,2.5,4.64,2.27,4.78c-0.23,0.14-0.32,0.43-0.2,0.68c0.06,0.11,0.13,0.22,0.19,0.33c0.13,0.23,0.26,0.45,0.4,0.69
	c-0.54,0-1.06,0-1.58,0C0.69,6.49,0.45,6.68,0.45,7c0,0.32,0.24,0.52,0.62,0.52c0.42,0,0.84,0,1.25,0c0.1,0,0.21,0,0.33,0
	C2.61,7.6,2.57,7.66,2.53,7.73C2.38,7.99,2.23,8.25,2.08,8.52C1.89,8.87,2.12,9.27,2.51,9.29C2.73,9.29,2.89,9.18,3,8.99
	c0.18-0.31,0.36-0.62,0.55-0.95C3.83,8.52,4.1,8.99,4.38,9.47c-0.07,0-0.12,0-0.16,0c-0.33,0-0.67-0.01-1,0
	c-0.3,0.01-0.51,0.24-0.5,0.52c0,0.29,0.23,0.51,0.53,0.51c0.29,0,0.59,0,0.88,0c0.08,0,0.16,0,0.25,0
	c-0.03,0.06-0.05,0.09-0.07,0.13c-0.25,0.43-0.49,0.85-0.74,1.28c-0.05,0.09-0.09,0.17-0.1,0.27c-0.02,0.24,0.12,0.45,0.36,0.53
	c0.23,0.08,0.47-0.02,0.61-0.25c0.12-0.19,0.23-0.39,0.34-0.59c0.16-0.28,0.33-0.56,0.5-0.86c0.06,0.1,0.11,0.19,0.16,0.28
	c0.15,0.26,0.29,0.53,0.46,0.78c0.12,0.17,0.31,0.23,0.51,0.18c0.2-0.05,0.33-0.18,0.39-0.38c0.04-0.16,0-0.29-0.08-0.43
	c-0.18-0.31-0.36-0.62-0.54-0.94c0.56,0,1.09,0,1.65,0c-0.03,0.05-0.05,0.09-0.07,0.13c-0.17,0.3-0.34,0.59-0.51,0.89
	c-0.1,0.18-0.08,0.36,0.03,0.53c0.12,0.17,0.29,0.24,0.49,0.22c0.19-0.02,0.32-0.14,0.41-0.3c0.18-0.31,0.36-0.63,0.55-0.95
	c0.15,0.27,0.3,0.52,0.45,0.77c0.15,0.25,0.28,0.5,0.44,0.74c0.12,0.19,0.37,0.25,0.57,0.17c0.33-0.12,0.44-0.46,0.26-0.77
	c-0.25-0.45-0.51-0.89-0.77-1.34c-0.02-0.03-0.05-0.05-0.03-0.09c0.36,0,0.72,0,1.09,0c0.21,0,0.38-0.08,0.49-0.27
	c0.2-0.36-0.05-0.75-0.48-0.76c-0.33-0.01-0.66,0-0.99,0c-0.04,0-0.08,0.01-0.13-0.02c0.27-0.47,0.54-0.93,0.82-1.41
	c0.03,0.05,0.06,0.09,0.08,0.13c0.16,0.27,0.31,0.55,0.47,0.82c0.09,0.15,0.2,0.26,0.38,0.29c0.21,0.03,0.38-0.03,0.51-0.2
	c0.13-0.17,0.14-0.36,0.03-0.55c-0.17-0.3-0.34-0.59-0.51-0.89c-0.02-0.04-0.06-0.07-0.05-0.12c0.52,0,1.03-0.01,1.54,0
	c0.32,0.01,0.54-0.11,0.65-0.42c0-0.07,0-0.14,0-0.2C13.45,6.59,13.23,6.46,12.9,6.48z M9.81,7.07C9.36,7.85,8.91,8.62,8.47,9.4
	C8.43,9.47,8.38,9.47,8.32,9.47c-0.44,0-0.89,0-1.33,0c-0.44,0-0.88,0-1.32,0c-0.07,0-0.11-0.02-0.15-0.09
	C5.08,8.61,4.64,7.85,4.19,7.08c-0.03-0.05-0.03-0.1,0-0.15c0.45-0.77,0.9-1.55,1.34-2.32c0.03-0.05,0.07-0.08,0.13-0.08
	c0.9,0,1.79,0,2.69,0c0.06,0,0.09,0.02,0.12,0.07c0.45,0.78,0.9,1.56,1.35,2.33C9.84,6.98,9.84,7.02,9.81,7.07z"/>
</svg>
