<?xml version="1.0" encoding="utf-8"?>
<!-- Generator: Adobe Illustrator 26.0.2, SVG Export Plug-In . SVG Version: 6.00 Build 0)  -->
<svg version="1.1" id="Capa_1" xmlns="http://www.w3.org/2000/svg" xmlns:xlink="http://www.w3.org/1999/xlink" x="0px" y="0px"
	 viewBox="0 0 14 14" style="enable-background:new 0 0 14 14;" xml:space="preserve">
<style type="text/css">
	.st0{fill:#4680FD;}
</style>
<path class="st0" d="M10.69,11.17L6.51,7C7.6,5.91,8.7,4.81,9.79,3.72l0.88-0.88c0.08-0.08,0.15-0.16,0.22-0.24
	c0.35-0.48,0.4-1.08,0.13-1.61c-0.25-0.49-0.73-0.8-1.27-0.83c-0.02,0-0.04,0-0.06,0c-0.44,0-0.84,0.17-1.17,0.5L3.36,5.83
	c-0.72,0.73-0.72,1.62,0,2.35l5.14,5.14c0.07,0.07,0.15,0.14,0.23,0.21c0.27,0.21,0.6,0.32,0.93,0.32c0.16,0,0.31-0.02,0.47-0.07
	c0.48-0.15,0.85-0.54,0.99-1.02C11.22,12.42,11.29,11.78,10.69,11.17z M9.29,12.69C9.29,12.69,9.29,12.69,9.29,12.69L9.29,12.69
	L9.29,12.69z"/>
</svg>
