<?xml version="1.0" encoding="utf-8"?>
<!-- Generator: Adobe Illustrator 26.0.2, SVG Export Plug-In . SVG Version: 6.00 Build 0)  -->
<svg version="1.1" id="Capa_1" xmlns="http://www.w3.org/2000/svg" xmlns:xlink="http://www.w3.org/1999/xlink" x="0px" y="0px"
	 viewBox="0 0 50 18" style="enable-background:new 0 0 50 18;" xml:space="preserve">
<style type="text/css">
	.st0{fill-rule:evenodd;clip-rule:evenodd;fill:#6F7F8C;}
</style>
<path class="st0" d="M40.9,0.45c-2,0-3.84,0.69-5.3,1.84c-1.46-1.15-3.3-1.84-5.3-1.84c-2,0-3.84,0.69-5.3,1.84
	c-1.46-1.15-3.3-1.84-5.3-1.84c-2,0-3.84,0.69-5.3,1.84c-1.46-1.15-3.3-1.84-5.3-1.84C4.38,0.45,0.56,4.28,0.56,9
	c0,4.72,3.83,8.55,8.55,8.55c2,0,3.84-0.69,5.3-1.84c1.46,1.15,3.3,1.84,5.3,1.84c2,0,3.84-0.69,5.3-1.84
	c1.46,1.15,3.3,1.84,5.3,1.84c2,0,3.84-0.69,5.3-1.84c1.46,1.15,3.3,1.84,5.3,1.84c4.72,0,8.55-3.83,8.55-8.55
	C49.44,4.28,45.62,0.45,40.9,0.45L40.9,0.45z M13,14.31c-1.09,0.79-2.45,1.28-3.9,1.28c-3.64,0-6.59-2.95-6.59-6.59
	c0-3.64,2.95-6.59,6.59-6.59c1.45,0,2.81,0.48,3.9,1.28c-1.16,1.46-1.85,3.3-1.85,5.31C11.16,11,11.85,12.85,13,14.31L13,14.31z
	 M14.4,12.91c-0.81-1.1-1.29-2.45-1.29-3.91c0-1.47,0.48-2.82,1.29-3.91c0.81,1.1,1.29,2.45,1.29,3.91
	C15.69,10.47,15.21,11.82,14.4,12.91L14.4,12.91z M23.6,14.31c-1.09,0.8-2.44,1.28-3.91,1.28c-1.46,0-2.8-0.47-3.9-1.28
	C16.95,12.85,17.65,11,17.65,9c0-2.01-0.69-3.85-1.85-5.31c1.09-0.8,2.43-1.28,3.9-1.28c1.46,0,2.81,0.47,3.91,1.28
	c-1.16,1.46-1.85,3.3-1.85,5.31C21.75,11,22.45,12.85,23.6,14.31L23.6,14.31z M25,12.91c-0.81-1.1-1.29-2.45-1.29-3.91
	c0-1.47,0.48-2.82,1.29-3.91c0.81,1.1,1.29,2.45,1.29,3.91C26.29,10.47,25.81,11.82,25,12.91L25,12.91z M34.2,14.31
	c-1.09,0.8-2.44,1.28-3.9,1.28c-1.46,0-2.8-0.47-3.9-1.28C27.55,12.85,28.25,11,28.25,9c0-2.01-0.69-3.85-1.85-5.31
	c1.09-0.8,2.43-1.28,3.9-1.28c1.46,0,2.81,0.47,3.9,1.28c-1.16,1.46-1.85,3.3-1.85,5.31C32.35,11,33.05,12.85,34.2,14.31L34.2,14.31
	z M35.6,12.91c-0.81-1.1-1.29-2.45-1.29-3.91c0-1.47,0.48-2.82,1.29-3.91c0.81,1.1,1.29,2.45,1.29,3.91
	C36.89,10.47,36.41,11.82,35.6,12.91L35.6,12.91z M40.9,15.59c-1.45,0-2.81-0.48-3.9-1.28C38.15,12.85,38.84,11,38.84,9
	c0-2.01-0.69-3.85-1.85-5.31c1.09-0.79,2.45-1.28,3.9-1.28c3.64,0,6.59,2.95,6.59,6.59C47.48,12.64,44.54,15.59,40.9,15.59
	L40.9,15.59z"/>
</svg>
