<?xml version="1.0" encoding="utf-8"?>
<!-- Generator: Adobe Illustrator 26.0.2, SVG Export Plug-In . SVG Version: 6.00 Build 0)  -->
<svg version="1.1" id="Capa_1" xmlns="http://www.w3.org/2000/svg" xmlns:xlink="http://www.w3.org/1999/xlink" x="0px" y="0px"
	 viewBox="0 0 26 26" style="enable-background:new 0 0 26 26;" xml:space="preserve">
<style type="text/css">
	.st0{fill:#6F7F8C;}
</style>
<g>
	<g>
		<path class="st0" d="M21.81,4.19C19.46,1.84,16.33,0.54,13,0.54C6.13,0.54,0.54,6.13,0.54,13c0,3.33,1.3,6.46,3.65,8.81
			c2.35,2.35,5.48,3.65,8.81,3.65c3.33,0,6.46-1.3,8.81-3.65c2.35-2.35,3.65-5.48,3.65-8.81C25.46,9.67,24.16,6.54,21.81,4.19z
			 M13,25.03c-3.21,0-6.23-1.25-8.51-3.52C2.22,19.23,0.97,16.21,0.97,13s1.25-6.23,3.52-8.51C6.77,2.22,9.79,0.97,13,0.97
			c3.21,0,6.23,1.25,8.51,3.52c2.27,2.27,3.52,5.29,3.52,8.51C25.03,19.63,19.63,25.03,13,25.03z"/>
		<path class="st0" d="M13,1.47C6.63,1.47,1.47,6.63,1.47,13S6.63,24.53,13,24.53c6.37,0,11.53-5.16,11.53-11.53S19.37,1.47,13,1.47
			z M11.31,2.1h0.91l0.83,2.16l0.83-2.16h0.91v3.04h-0.61V3.01l-0.8,2.12h-0.66l-0.8-2.12v2.12h-0.61V2.1z M3.66,7.09l1.48-1.77
			c0.31-0.37,0.74-0.66,1.14-0.32c0.13,0.11,0.18,0.14,0.33,0.42c0.04,0.1,0.06,0.28,0,0.45c0.35-0.22,0.73-0.15,0.98,0.09
			c0.38,0.36,0.32,0.79-0.04,1.21L5.99,9.04L3.66,7.09z M13,20.37c-4.07,0-7.37-3.3-7.37-7.37c0-4.07,3.3-7.37,7.37-7.37
			c4.07,0,7.37,3.3,7.37,7.37C20.37,17.07,17.07,20.37,13,20.37z M19.86,9.11l-0.55-0.69l1.1-1.61L20.4,6.81l-1.8,0.74l-0.56-0.68
			l1.9-2.45L20.42,5l-1.19,1.56l1.82-0.78l0.5,0.62l-1.14,1.62l1.77-0.84l0.47,0.58L19.86,9.11z"/>
		<path class="st0" d="M6.11,13H13V6.11C9.19,6.11,6.11,9.19,6.11,13z"/>
		<path class="st0" d="M13,19.89c3.81,0,6.89-3.09,6.89-6.89H13V19.89z"/>
		<path class="st0" d="M5.95,5.77C5.8,5.64,5.57,5.64,5.46,5.76L4.57,6.82l0.55,0.46L6,6.24C6.11,6.1,6.11,5.91,5.95,5.77z"/>
		<path class="st0" d="M7.03,7c0.12-0.15,0.11-0.38-0.07-0.53C6.8,6.34,6.56,6.38,6.45,6.5L5.52,7.62L6.1,8.1L7.03,7z"/>
	</g>
</g>
</svg>
