<?xml version="1.0" encoding="utf-8"?>
<!-- Generator: Adobe Illustrator 26.0.2, SVG Export Plug-In . SVG Version: 6.00 Build 0)  -->
<svg version="1.1" id="Capa_1" xmlns="http://www.w3.org/2000/svg" xmlns:xlink="http://www.w3.org/1999/xlink" x="0px" y="0px"
	 viewBox="0 0 161 48" style="enable-background:new 0 0 161 48;" xml:space="preserve">
<style type="text/css">
	.st0{fill:#4680FD;}
</style>
<path class="st0" d="M136.94,0.54H36.38c-0.04,0-0.08,0-0.13,0c-0.01,0-0.02,0-0.03,0H11.39c-2.52,0-4.56,2.04-4.56,4.56
	s2.04,4.56,4.56,4.56h6.36c-1.2,1.54-2.22,3.24-3.01,5.06H5.76c-2.52,0-4.56,2.04-4.56,4.56c0,2.52,2.04,4.56,4.56,4.56h7.01
	c0,0.11-0.01,0.21-0.01,0.32c0,2.16,0.28,4.24,0.84,6.25c0.06,0.21,0.13,0.41,0.19,0.62c0.03,0.1,0.07,0.21,0.1,0.31
	c0.09,0.28,0.18,0.55,0.28,0.82c0.08,0.23,0.18,0.46,0.27,0.69c0.1,0.25,0.2,0.49,0.3,0.73c0.14,0.32,0.29,0.64,0.44,0.96
	c0.06,0.13,0.13,0.26,0.2,0.38c0.17,0.33,0.34,0.65,0.53,0.97c0.03,0.05,0.05,0.09,0.07,0.14c0.01,0.02,0.03,0.05,0.04,0.07
	c0.52,0.88,1.09,1.72,1.71,2.52h-0.51c-2.52,0-4.56,2.04-4.56,4.56c0,2.52,2.04,4.56,4.56,4.56h18.99c0.01,0,0.02,0,0.03,0
	c0.03,0,0.06,0,0.09,0c0,0,0.01,0,0.01,0c0.01,0,0.01,0,0.02,0h100.55c13.04,0,23.61-10.57,23.61-23.61l0,0
	C160.55,11.11,149.98,0.54,136.94,0.54z"/>
</svg>
