<?xml version="1.0" encoding="utf-8"?>
<!-- Generator: Adobe Illustrator 26.0.2, SVG Export Plug-In . SVG Version: 6.00 Build 0)  -->
<svg version="1.1" id="Capa_1" xmlns="http://www.w3.org/2000/svg" xmlns:xlink="http://www.w3.org/1999/xlink" x="0px" y="0px"
	 viewBox="0 0 14 14" style="enable-background:new 0 0 14 14;" xml:space="preserve">
<style type="text/css">
	.st0{fill:#4680FD;}
</style>
<g>
	<path class="st0" d="M12.88,5.95c-0.07-0.09-0.15-0.18-0.23-0.27C11.2,4.24,9.76,2.79,8.31,1.34c-0.22-0.22-0.45-0.4-0.77-0.41
		c-1.9,0-3.8,0-5.7,0C1.69,1,1.54,1.03,1.41,1.12c-0.2,0.14-0.35,0.33-0.42,0.57C0.98,1.73,0.97,1.78,0.94,1.81
		c0,3.45,0,6.91,0,10.36c0.03,0.08,0.03,0.17,0.06,0.25c0.2,0.41,0.52,0.64,0.98,0.64c1.9,0,3.79,0,5.69,0
		c0.2,0,0.33-0.08,0.41-0.25c0.36-0.69,0.86-1.26,1.49-1.71c0.65-0.46,1.36-0.73,2.15-0.84c0.31-0.04,0.63-0.04,0.94-0.04
		c0.25,0,0.39-0.14,0.39-0.39c0-1.09,0-2.18,0-3.28C13.06,6.33,13.02,6.13,12.88,5.95z M12.23,9.48c-2.04,0.09-3.6,1.01-4.67,2.75
		c-0.05,0.08-0.1,0.12-0.2,0.12c-1.76,0-3.52,0-5.27,0c-0.31,0-0.44-0.13-0.44-0.44c0-1.64,0-3.28,0-4.92c0-1.63,0-3.26,0-4.9
		c0-0.31,0.13-0.44,0.44-0.44c1.75,0,3.5,0,5.25,0c0.15,0,0.27,0.05,0.38,0.16c1.49,1.49,2.98,2.98,4.47,4.47
		c0.11,0.11,0.16,0.22,0.16,0.38c0,0.91,0,1.81,0,2.72C12.34,9.46,12.32,9.48,12.23,9.48z"/>
	<path class="st0" d="M7.42,2.51C7.31,2.4,7.2,2.35,7.04,2.36c-1.42,0-2.84,0-4.26,0c-0.29,0-0.43,0.13-0.43,0.42
		c0,1.38,0,2.76,0,4.14c0,0.3,0.13,0.43,0.43,0.43c1.4,0,2.79,0,4.19,0c1.14,0,2.27,0,3.41,0c0.28,0,0.57,0,0.85,0
		c0.19,0,0.34-0.12,0.36-0.29c0.03-0.18,0-0.34-0.14-0.49C10.11,5.22,8.76,3.87,7.42,2.51z M10.38,6.64c-2.39,0-4.78,0-7.18,0
		c-0.1,0-0.14-0.02-0.14-0.13c0.01-1.11,0-2.22,0-3.33c0-0.1,0.03-0.11,0.12-0.11c1.23,0,2.46,0,3.69,0c0.06,0,0.1,0,0.15,0.05
		c1.15,1.16,2.31,2.33,3.47,3.49c0.01,0.01,0.01,0.01,0.02,0.04C10.45,6.64,10.41,6.64,10.38,6.64z"/>
	<path class="st0" d="M4.8,8.77c-0.34,0-0.68,0-1.02,0c-0.34,0-0.69,0-1.03,0c-0.26,0-0.4,0.14-0.4,0.4c0,0.11,0,0.22,0,0.33
		c0.01,0.66,0.48,1.23,1.13,1.37c0.64,0.13,1.29-0.19,1.58-0.79C5.2,9.79,5.2,9.48,5.2,9.16C5.19,8.91,5.05,8.77,4.8,8.77z
		 M4.48,9.57c-0.05,0.35-0.36,0.62-0.71,0.62c-0.35,0-0.64-0.27-0.7-0.62c-0.01-0.08,0.01-0.1,0.09-0.1c0.2,0,0.41,0,0.61,0
		c0.21,0,0.42,0,0.63,0C4.48,9.47,4.49,9.5,4.48,9.57z"/>
</g>
</svg>
