<?xml version="1.0" encoding="utf-8"?>
<!-- Generator: Adobe Illustrator 26.0.2, SVG Export Plug-In . SVG Version: 6.00 Build 0)  -->
<svg version="1.1" id="Capa_1" xmlns="http://www.w3.org/2000/svg" xmlns:xlink="http://www.w3.org/1999/xlink" x="0px" y="0px"
	 viewBox="0 0 14 14" style="enable-background:new 0 0 14 14;" xml:space="preserve">
<style type="text/css">
	.st0{fill:#4680FD;}
</style>
<g>
	<path class="st0" d="M11.59,2.48c0.04-0.04,0.08-0.06,0.14-0.06c0.2,0,0.39,0,0.59,0c0.25,0,0.41-0.16,0.41-0.42
		c0-0.37,0-0.74,0-1.11c0-0.29-0.15-0.44-0.44-0.44c-0.57,0-1.13,0-1.7,0c-0.16,0-0.28,0.05-0.39,0.16
		C9.89,0.92,9.58,1.23,9.26,1.55c-0.14,0.14-0.14,0.14-0.29,0c-0.2-0.2-0.41-0.2-0.61,0C8.12,1.79,7.88,2.02,7.65,2.26
		C7.6,2.3,7.58,2.34,7.51,2.29C7.25,2.1,6.95,2.03,6.63,2.03c-1.58,0-3.16,0-4.74,0c-0.84,0-1.45,0.61-1.45,1.45
		c0,0.61,0,1.21,0,1.82c0,2.27,0,4.53,0,6.8c0,0.56,0.24,0.99,0.73,1.28c0.16,0.09,0.33,0.13,0.5,0.18c2.5,0,5,0,7.5,0
		c0.01-0.01,0.02-0.02,0.03-0.02c0.71-0.12,1.2-0.68,1.2-1.39c0-2.14,0-4.27,0-6.41c0-0.29-0.08-0.55-0.24-0.78
		c-0.05-0.07-0.04-0.11,0.02-0.17c0.24-0.24,0.49-0.48,0.72-0.72c0.18-0.18,0.17-0.4,0-0.58c-0.03-0.03-0.06-0.06-0.09-0.09
		c-0.07-0.05-0.06-0.09,0-0.15C11.08,3,11.33,2.74,11.59,2.48z M9.64,12.08c0,0.45-0.26,0.7-0.71,0.7c-2.34,0-4.67,0-7.01,0
		c-0.44,0-0.71-0.26-0.71-0.71c0-1.43,0-2.86,0-4.29s0-2.86,0-4.29c0-0.45,0.26-0.7,0.71-0.7c1.57,0,3.15,0,4.72,0
		c0.22,0,0.4,0.07,0.56,0.23c0.73,0.74,1.47,1.47,2.21,2.21C9.57,5.4,9.64,5.58,9.64,5.8C9.64,7.89,9.64,9.99,9.64,12.08z
		 M10.05,3.84C9.91,3.98,9.77,4.12,9.63,4.26C9.58,4.32,9.55,4.3,9.51,4.26C9.07,3.81,8.63,3.37,8.18,2.93
		C8.15,2.9,8.11,2.88,8.17,2.82c0.15-0.14,0.3-0.29,0.44-0.44c0.02-0.02,0.03-0.04,0.08-0.04C8.7,2.35,8.71,2.37,8.73,2.39
		c0.44,0.44,0.88,0.88,1.32,1.32C10.1,3.76,10.11,3.79,10.05,3.84z M10.27,2.72c-0.05,0.05-0.08,0.06-0.13,0
		c-0.14-0.15-0.28-0.29-0.43-0.43c-0.05-0.05-0.04-0.07,0-0.12c0.3-0.3,0.61-0.6,0.9-0.9c0.04-0.04,0.09-0.06,0.15-0.06
		c0.35,0,0.7,0.01,1.05,0c0.13,0,0.17,0.04,0.15,0.15c0,0.02,0,0.05,0,0.08c0,0.21,0,0.21-0.21,0.21c-0.07,0-0.14,0-0.2,0
		C11.4,1.64,11.29,1.7,11.18,1.8C10.88,2.11,10.57,2.41,10.27,2.72z"/>
	<path class="st0" d="M13.47,5.81c-0.19-0.46-0.47-0.86-0.78-1.24c-0.16-0.19-0.43-0.18-0.59,0.02c-0.2,0.25-0.39,0.52-0.55,0.8
		c-0.14,0.25-0.29,0.5-0.29,0.79c-0.02,0.58,0.4,1.07,1,1.17c0.53,0.09,1.09-0.28,1.25-0.81c0.01-0.04,0.01-0.09,0.05-0.12
		c0-0.12,0-0.24,0-0.36C13.52,5.97,13.5,5.89,13.47,5.81z M12.63,6.51c-0.14,0.11-0.32,0.1-0.46,0c-0.13-0.1-0.18-0.26-0.12-0.41
		c0.09-0.22,0.22-0.41,0.36-0.63c0.14,0.21,0.27,0.41,0.36,0.63C12.82,6.25,12.76,6.42,12.63,6.51z"/>
	<path class="st0" d="M7.14,10.49c-0.05-0.05-0.07-0.1-0.07-0.17c0-0.67,0-1.35,0-2.02c0-0.07,0.02-0.11,0.06-0.16
		C7.33,7.96,7.52,7.78,7.7,7.59C7.88,7.4,7.89,7.17,7.73,7.01C7.57,6.85,7.34,6.86,7.16,7.04C6.97,7.23,6.79,7.41,6.6,7.6
		C6.56,7.65,6.51,7.67,6.44,7.67c-0.68,0-1.36,0-2.04,0c-0.07,0-0.11-0.02-0.16-0.07C4.07,7.41,3.88,7.23,3.69,7.04
		C3.51,6.86,3.29,6.85,3.13,7.01C2.96,7.17,2.97,7.4,3.15,7.59c0.18,0.18,0.37,0.37,0.55,0.55c0.05,0.05,0.07,0.1,0.07,0.17
		c0,0.67,0,1.35,0,2.02c0,0.08-0.02,0.13-0.08,0.18c-0.2,0.19-0.39,0.38-0.58,0.58C3,11.2,2.98,11.35,3.04,11.51
		c0.06,0.14,0.2,0.23,0.38,0.23c0.09-0.01,0.19-0.05,0.27-0.14c0.19-0.19,0.38-0.37,0.56-0.56c0.05-0.05,0.1-0.07,0.17-0.07
		c0.67,0,1.35,0,2.02,0c0.07,0,0.12,0.02,0.17,0.07c0.18,0.19,0.37,0.37,0.55,0.55c0.18,0.18,0.42,0.19,0.58,0.03
		c0.16-0.16,0.15-0.39-0.04-0.58C7.51,10.86,7.33,10.67,7.14,10.49z M6.22,10.2c-0.26,0-0.52,0-0.78,0c-0.27,0-0.54,0-0.81,0
		c-0.07,0-0.09-0.02-0.09-0.09c0-0.53,0-1.06,0-1.59c0-0.07,0.02-0.09,0.09-0.09c0.53,0,1.06,0,1.59,0c0.07,0,0.09,0.02,0.09,0.09
		c0,0.53,0,1.06,0,1.59C6.31,10.19,6.29,10.2,6.22,10.2z"/>
	<path class="st0" d="M6.78,3.69C6.69,3.61,6.6,3.57,6.48,3.57c-1.13,0-2.26,0-3.39,0c-0.59,0-1.08,0.5-1.1,1.08
		c-0.03,0.66,0.48,1.19,1.14,1.2c0.8,0,1.59,0,2.39,0c0.82,0,1.65,0,2.47,0c0.18,0,0.3-0.08,0.37-0.24c0.06-0.16,0.03-0.3-0.09-0.42
		C7.77,4.69,7.27,4.19,6.78,3.69z M5.13,5.08c-0.66,0-1.32,0-1.98,0c-0.29,0-0.47-0.26-0.36-0.51c0.07-0.16,0.2-0.23,0.38-0.23
		c0.7,0,1.4,0,2.1,0c0.33,0,0.66,0,0.99,0c0.05,0,0.09,0,0.13,0.04C6.6,4.6,6.83,4.83,7.08,5.08C6.41,5.08,5.77,5.08,5.13,5.08z"/>
</g>
</svg>
