<?xml version="1.0" encoding="utf-8"?>
<!-- Generator: Adobe Illustrator 26.0.2, SVG Export Plug-In . SVG Version: 6.00 Build 0)  -->
<svg version="1.1" id="Capa_1" xmlns="http://www.w3.org/2000/svg" xmlns:xlink="http://www.w3.org/1999/xlink" x="0px" y="0px"
	 viewBox="0 0 290 42" style="enable-background:new 0 0 290 42;" xml:space="preserve">
<style type="text/css">
	.st0{fill:url(#SVGID_1_);}
	.st1{fill:url(#SVGID_00000168816759188732884460000013222327543256213656_);}
	.st2{fill:url(#SVGID_00000001639623558379400380000004260188675402811065_);}
	.st3{fill:url(#SVGID_00000072984462058910619440000008832980783515143828_);}
	.st4{fill:url(#SVGID_00000088841634784914257480000014288455188387212220_);}
	.st5{fill:url(#SVGID_00000140703608883364745040000003415400741451618207_);}
	.st6{fill:url(#SVGID_00000036253648628576287090000009613130907223014325_);}
	.st7{fill:url(#SVGID_00000076575709222794104960000018366810814138254209_);}
	.st8{fill:url(#SVGID_00000138553126759303427920000015222709790760524730_);}
	.st9{fill:url(#SVGID_00000135669100887999895650000002200753051126928294_);}
	.st10{fill:url(#SVGID_00000148662751083936369210000007765330363249095072_);}
	.st11{fill:#4680FD;}
</style>
<g>
	<linearGradient id="SVGID_1_" gradientUnits="userSpaceOnUse" x1="84.184" y1="4.0531" x2="84.184" y2="39.3764">
		<stop  offset="7.476040e-07" style="stop-color:#41566A"/>
		<stop  offset="0.3239" style="stop-color:#43596D"/>
		<stop  offset="0.585" style="stop-color:#4A6277"/>
		<stop  offset="0.8235" style="stop-color:#567288"/>
		<stop  offset="1" style="stop-color:#62829A"/>
	</linearGradient>
	<path class="st0" d="M101.59,39.38h-6.95V14.5c0-0.49-0.09-0.94-0.28-1.36c-0.19-0.42-0.44-0.79-0.75-1.11
		c-0.32-0.32-0.68-0.56-1.11-0.74c-0.42-0.18-0.87-0.27-1.36-0.27c-0.49,0-0.94,0.09-1.36,0.27c-0.42,0.18-0.79,0.43-1.11,0.74
		c-0.32,0.32-0.56,0.68-0.74,1.11c-0.18,0.42-0.27,0.87-0.27,1.36v24.88H80.7V14.5c0-0.49-0.09-0.94-0.27-1.36
		c-0.18-0.42-0.43-0.79-0.74-1.11c-0.32-0.32-0.68-0.56-1.11-0.74c-0.42-0.18-0.87-0.27-1.36-0.27c-0.49,0-0.94,0.09-1.36,0.27
		c-0.42,0.18-0.79,0.43-1.11,0.74c-0.32,0.32-0.56,0.68-0.74,1.11c-0.18,0.42-0.27,0.87-0.27,1.36v24.88h-6.97V14.5
		c0-1.44,0.27-2.8,0.81-4.07c0.54-1.27,1.29-2.38,2.24-3.33s2.06-1.69,3.33-2.23c1.27-0.54,2.63-0.81,4.07-0.81
		c1.3,0,2.54,0.23,3.74,0.69c1.2,0.46,2.28,1.13,3.23,2c0.96-0.87,2.03-1.54,3.22-2c1.19-0.46,2.43-0.69,3.73-0.69
		c1.44,0,2.8,0.27,4.07,0.81c1.27,0.54,2.38,1.29,3.33,2.23c0.95,0.95,1.69,2.06,2.24,3.33c0.54,1.27,0.81,2.63,0.81,4.07V39.38z"/>
	
		<linearGradient id="SVGID_00000040539038998422525600000014587567637751913389_" gradientUnits="userSpaceOnUse" x1="123.9288" y1="4.1017" x2="123.9288" y2="40.1295">
		<stop  offset="7.476040e-07" style="stop-color:#41566A"/>
		<stop  offset="0.3239" style="stop-color:#43596D"/>
		<stop  offset="0.585" style="stop-color:#4A6277"/>
		<stop  offset="0.8235" style="stop-color:#567288"/>
		<stop  offset="1" style="stop-color:#62829A"/>
	</linearGradient>
	<path style="fill:url(#SVGID_00000040539038998422525600000014587567637751913389_);" d="M141.94,22.1c0,1.65-0.21,3.24-0.64,4.77
		c-0.43,1.53-1.03,2.96-1.81,4.3c-0.78,1.34-1.72,2.56-2.82,3.66c-1.1,1.1-2.32,2.04-3.64,2.83c-1.33,0.79-2.76,1.39-4.3,1.82
		c-1.54,0.43-3.13,0.64-4.79,0.64c-1.65,0-3.24-0.21-4.77-0.64c-1.53-0.43-2.96-1.04-4.3-1.82c-1.34-0.79-2.56-1.73-3.66-2.83
		c-1.1-1.1-2.04-2.32-2.83-3.66c-0.79-1.34-1.39-2.77-1.82-4.3c-0.43-1.53-0.64-3.12-0.64-4.77c0-1.65,0.21-3.25,0.64-4.79
		c0.43-1.54,1.04-2.97,1.82-4.3c0.79-1.33,1.73-2.54,2.83-3.64c1.1-1.1,2.32-2.04,3.66-2.82c1.34-0.78,2.77-1.38,4.3-1.81
		c1.53-0.43,3.12-0.64,4.77-0.64c1.65,0,3.25,0.21,4.79,0.64c1.54,0.43,2.97,1.03,4.3,1.81c1.33,0.78,2.54,1.72,3.64,2.82
		c1.1,1.1,2.04,2.32,2.82,3.64c0.78,1.33,1.38,2.76,1.81,4.3C141.73,18.86,141.94,20.45,141.94,22.1z M135.02,22.1
		c0-1.52-0.29-2.96-0.87-4.31c-0.58-1.35-1.37-2.53-2.37-3.52c-1-1-2.17-1.79-3.52-2.37c-1.35-0.58-2.79-0.87-4.31-0.87
		c-1.54,0-2.98,0.29-4.32,0.87c-1.34,0.58-2.52,1.37-3.52,2.37c-1,1-1.8,2.17-2.38,3.52c-0.58,1.35-0.87,2.79-0.87,4.31
		c0,1.52,0.29,2.95,0.87,4.29c0.58,1.34,1.38,2.51,2.38,3.51c1,1,2.18,1.8,3.52,2.38c1.34,0.58,2.79,0.87,4.32,0.87
		c1.52,0,2.96-0.29,4.31-0.87c1.35-0.58,2.53-1.38,3.52-2.38c1-1,1.79-2.17,2.37-3.51S135.02,23.63,135.02,22.1z"/>
	
		<linearGradient id="SVGID_00000138535213193213728900000008424273867230112929_" gradientUnits="userSpaceOnUse" x1="162.629" y1="4.1017" x2="162.629" y2="40.1295">
		<stop  offset="7.476040e-07" style="stop-color:#41566A"/>
		<stop  offset="0.3239" style="stop-color:#43596D"/>
		<stop  offset="0.585" style="stop-color:#4A6277"/>
		<stop  offset="0.8235" style="stop-color:#567288"/>
		<stop  offset="1" style="stop-color:#62829A"/>
	</linearGradient>
	<path style="fill:url(#SVGID_00000138535213193213728900000008424273867230112929_);" d="M180.64,22.1c0,1.65-0.21,3.24-0.64,4.77
		c-0.43,1.53-1.03,2.96-1.81,4.3c-0.78,1.34-1.72,2.56-2.82,3.66c-1.1,1.1-2.32,2.04-3.64,2.83c-1.33,0.79-2.76,1.39-4.3,1.82
		c-1.54,0.43-3.13,0.64-4.79,0.64c-1.65,0-3.24-0.21-4.77-0.64c-1.53-0.43-2.96-1.04-4.3-1.82c-1.34-0.79-2.56-1.73-3.66-2.83
		c-1.1-1.1-2.04-2.32-2.83-3.66c-0.79-1.34-1.39-2.77-1.82-4.3c-0.43-1.53-0.64-3.12-0.64-4.77c0-1.65,0.21-3.25,0.64-4.79
		c0.43-1.54,1.04-2.97,1.82-4.3c0.79-1.33,1.73-2.54,2.83-3.64c1.1-1.1,2.32-2.04,3.66-2.82c1.34-0.78,2.77-1.38,4.3-1.81
		c1.53-0.43,3.12-0.64,4.77-0.64c1.65,0,3.25,0.21,4.79,0.64c1.54,0.43,2.97,1.03,4.3,1.81c1.33,0.78,2.54,1.72,3.64,2.82
		c1.1,1.1,2.04,2.32,2.82,3.64c0.78,1.33,1.38,2.76,1.81,4.3C180.43,18.86,180.64,20.45,180.64,22.1z M173.72,22.1
		c0-1.52-0.29-2.96-0.87-4.31c-0.58-1.35-1.37-2.53-2.37-3.52c-1-1-2.17-1.79-3.52-2.37c-1.35-0.58-2.79-0.87-4.31-0.87
		c-1.54,0-2.98,0.29-4.32,0.87c-1.34,0.58-2.52,1.37-3.52,2.37c-1,1-1.8,2.17-2.38,3.52c-0.58,1.35-0.87,2.79-0.87,4.31
		c0,1.52,0.29,2.95,0.87,4.29c0.58,1.34,1.38,2.51,2.38,3.51c1,1,2.18,1.8,3.52,2.38c1.34,0.58,2.79,0.87,4.32,0.87
		c1.52,0,2.96-0.29,4.31-0.87c1.35-0.58,2.53-1.38,3.52-2.38c1-1,1.79-2.17,2.37-3.51C173.43,25.06,173.72,23.63,173.72,22.1z"/>
	
		<linearGradient id="SVGID_00000099630812291458457280000002277406527439701428_" gradientUnits="userSpaceOnUse" x1="199.381" y1="4.5389" x2="199.381" y2="39.3764">
		<stop  offset="9.424546e-07" style="stop-color:#41566A"/>
		<stop  offset="0.3239" style="stop-color:#43596D"/>
		<stop  offset="0.585" style="stop-color:#4A6277"/>
		<stop  offset="0.8235" style="stop-color:#567288"/>
		<stop  offset="1" style="stop-color:#62829A"/>
	</linearGradient>
	<path style="fill:url(#SVGID_00000099630812291458457280000002277406527439701428_);" d="M217.34,4.54l-14.5,34.84h-6.97
		L181.42,4.54h7.92l10,23.25l10.03-23.25H217.34z"/>
	
		<linearGradient id="SVGID_00000178172519141000119240000001656623652826701986_" gradientUnits="userSpaceOnUse" x1="234.5556" y1="4.5389" x2="234.5556" y2="39.3764">
		<stop  offset="7.476040e-07" style="stop-color:#41566A"/>
		<stop  offset="0.3239" style="stop-color:#43596D"/>
		<stop  offset="0.585" style="stop-color:#4A6277"/>
		<stop  offset="0.8235" style="stop-color:#567288"/>
		<stop  offset="1" style="stop-color:#62829A"/>
	</linearGradient>
	<path style="fill:url(#SVGID_00000178172519141000119240000001656623652826701986_);" d="M246.5,39.38h-23.88V4.54h23.88v6.97
		h-16.91v6.97h11.44v6.97h-11.44v6.95h16.91V39.38z"/>
	<g>
		
			<linearGradient id="SVGID_00000098938396827755270670000001725379484763891103_" gradientUnits="userSpaceOnUse" x1="259.0273" y1="16.4425" x2="259.0273" y2="27.465">
			<stop  offset="7.476040e-07" style="stop-color:#41566A"/>
			<stop  offset="0.3239" style="stop-color:#43596D"/>
			<stop  offset="0.585" style="stop-color:#4A6277"/>
			<stop  offset="0.8235" style="stop-color:#567288"/>
			<stop  offset="1" style="stop-color:#62829A"/>
		</linearGradient>
		<path style="fill:url(#SVGID_00000098938396827755270670000001725379484763891103_);" d="M264.35,27.27h-0.64l-1.03-1.43
			c-0.25,0.23-0.52,0.44-0.8,0.64c-0.28,0.2-0.58,0.37-0.89,0.52c-0.31,0.15-0.63,0.26-0.96,0.35c-0.33,0.08-0.66,0.13-1,0.13
			c-0.73,0-1.42-0.12-2.07-0.37c-0.65-0.25-1.21-0.61-1.69-1.08c-0.48-0.47-0.87-1.05-1.14-1.73c-0.28-0.68-0.42-1.46-0.42-2.33
			c0-0.81,0.14-1.56,0.42-2.23c0.28-0.68,0.66-1.26,1.14-1.75c0.48-0.49,1.05-0.87,1.69-1.13c0.65-0.27,1.34-0.4,2.07-0.4
			c0.34,0,0.67,0.04,1,0.13c0.33,0.08,0.65,0.2,0.96,0.35c0.31,0.15,0.61,0.32,0.89,0.53c0.28,0.2,0.55,0.42,0.79,0.65l1.03-1.24
			h0.64V27.27z M261.68,21.96c0-0.36-0.07-0.72-0.21-1.06c-0.14-0.34-0.33-0.64-0.57-0.91c-0.24-0.26-0.52-0.47-0.84-0.63
			c-0.32-0.16-0.66-0.24-1.03-0.24c-0.36,0-0.71,0.06-1.03,0.19c-0.32,0.12-0.6,0.31-0.84,0.55c-0.24,0.24-0.42,0.54-0.56,0.89
			c-0.14,0.35-0.2,0.76-0.2,1.21c0,0.45,0.07,0.86,0.2,1.21c0.14,0.35,0.32,0.65,0.56,0.89c0.24,0.24,0.52,0.42,0.84,0.55
			c0.32,0.12,0.66,0.18,1.03,0.18c0.36,0,0.71-0.08,1.03-0.24c0.32-0.16,0.6-0.37,0.84-0.63c0.24-0.26,0.43-0.56,0.57-0.91
			C261.61,22.68,261.68,22.33,261.68,21.96z"/>
		
			<linearGradient id="SVGID_00000038392719211248641300000014338169782731679879_" gradientUnits="userSpaceOnUse" x1="271.7148" y1="16.4619" x2="271.7148" y2="31.2429">
			<stop  offset="7.476040e-07" style="stop-color:#41566A"/>
			<stop  offset="0.3239" style="stop-color:#43596D"/>
			<stop  offset="0.585" style="stop-color:#4A6277"/>
			<stop  offset="0.8235" style="stop-color:#567288"/>
			<stop  offset="1" style="stop-color:#62829A"/>
		</linearGradient>
		<path style="fill:url(#SVGID_00000038392719211248641300000014338169782731679879_);" d="M269.06,31.24h-2.68v-14.4h0.64
			l1.06,1.26c0.24-0.23,0.5-0.44,0.79-0.64c0.29-0.2,0.58-0.37,0.89-0.52c0.31-0.15,0.63-0.26,0.96-0.35c0.33-0.08,0.67-0.13,1-0.13
			c0.73,0,1.42,0.13,2.07,0.39c0.65,0.26,1.21,0.63,1.69,1.11c0.48,0.48,0.87,1.06,1.14,1.74c0.28,0.68,0.42,1.43,0.42,2.25
			c0,0.86-0.14,1.63-0.42,2.31c-0.28,0.68-0.66,1.27-1.14,1.74c-0.48,0.48-1.05,0.84-1.69,1.1c-0.65,0.25-1.34,0.38-2.07,0.38
			c-0.23,0-0.47-0.03-0.7-0.08s-0.46-0.12-0.68-0.21c-0.22-0.09-0.44-0.19-0.66-0.3c-0.22-0.11-0.43-0.22-0.63-0.34V31.24z
			 M274.38,21.96c0-0.44-0.07-0.84-0.21-1.19c-0.14-0.35-0.33-0.65-0.57-0.89c-0.24-0.24-0.52-0.43-0.85-0.56
			c-0.32-0.13-0.67-0.19-1.03-0.19c-0.36,0-0.71,0.06-1.03,0.19c-0.32,0.13-0.6,0.32-0.84,0.56c-0.24,0.24-0.43,0.54-0.57,0.89
			c-0.14,0.35-0.21,0.75-0.21,1.19c0,0.42,0.07,0.81,0.21,1.16c0.14,0.35,0.33,0.65,0.57,0.9c0.24,0.25,0.52,0.44,0.84,0.57
			c0.32,0.14,0.66,0.2,1.03,0.2c0.36,0,0.71-0.07,1.03-0.2c0.32-0.14,0.61-0.33,0.85-0.57c0.24-0.25,0.43-0.55,0.57-0.9
			C274.31,22.77,274.38,22.39,274.38,21.96z"/>
		
			<linearGradient id="SVGID_00000067946316592493480020000005722459901120281022_" gradientUnits="userSpaceOnUse" x1="283.8569" y1="16.4619" x2="283.8569" y2="31.2429">
			<stop  offset="7.476040e-07" style="stop-color:#41566A"/>
			<stop  offset="0.3239" style="stop-color:#43596D"/>
			<stop  offset="0.585" style="stop-color:#4A6277"/>
			<stop  offset="0.8235" style="stop-color:#567288"/>
			<stop  offset="1" style="stop-color:#62829A"/>
		</linearGradient>
		<path style="fill:url(#SVGID_00000067946316592493480020000005722459901120281022_);" d="M281.2,31.24h-2.68v-14.4h0.64l1.06,1.26
			c0.24-0.23,0.5-0.44,0.79-0.64c0.29-0.2,0.58-0.37,0.89-0.52c0.31-0.15,0.63-0.26,0.96-0.35c0.33-0.08,0.67-0.13,1-0.13
			c0.73,0,1.42,0.13,2.07,0.39c0.65,0.26,1.21,0.63,1.69,1.11c0.48,0.48,0.87,1.06,1.14,1.74c0.28,0.68,0.42,1.43,0.42,2.25
			c0,0.86-0.14,1.63-0.42,2.31c-0.28,0.68-0.66,1.27-1.14,1.74c-0.48,0.48-1.05,0.84-1.69,1.1c-0.65,0.25-1.34,0.38-2.07,0.38
			c-0.23,0-0.47-0.03-0.7-0.08s-0.46-0.12-0.68-0.21c-0.22-0.09-0.44-0.19-0.66-0.3c-0.22-0.11-0.43-0.22-0.63-0.34V31.24z
			 M286.52,21.96c0-0.44-0.07-0.84-0.21-1.19c-0.14-0.35-0.33-0.65-0.57-0.89c-0.24-0.24-0.52-0.43-0.85-0.56
			c-0.32-0.13-0.67-0.19-1.03-0.19c-0.36,0-0.71,0.06-1.03,0.19c-0.32,0.13-0.6,0.32-0.84,0.56c-0.24,0.24-0.43,0.54-0.57,0.89
			c-0.14,0.35-0.21,0.75-0.21,1.19c0,0.42,0.07,0.81,0.21,1.16c0.14,0.35,0.33,0.65,0.57,0.9c0.24,0.25,0.52,0.44,0.84,0.57
			c0.32,0.14,0.66,0.2,1.03,0.2c0.36,0,0.71-0.07,1.03-0.2c0.32-0.14,0.61-0.33,0.85-0.57c0.24-0.25,0.43-0.55,0.57-0.9
			C286.46,22.77,286.52,22.39,286.52,21.96z"/>
	</g>
	<g>
		<g>
			
				<linearGradient id="SVGID_00000030458237423468418720000002397080088863420838_" gradientUnits="userSpaceOnUse" x1="13.7635" y1="38.88" x2="37.514" y2="35.0984">
				<stop  offset="3.738020e-07" style="stop-color:#4680FD"/>
				<stop  offset="0.1645" style="stop-color:#4D86FD"/>
				<stop  offset="0.4054" style="stop-color:#6195FE"/>
				<stop  offset="0.6934" style="stop-color:#81AEFE"/>
				<stop  offset="1" style="stop-color:#ABCFFF"/>
			</linearGradient>
			<path style="fill:url(#SVGID_00000030458237423468418720000002397080088863420838_);" d="M14.63,41.35h16.24
				c2.16,0,3.9-1.75,3.9-3.9v0c0-2.16-1.75-3.9-3.9-3.9H14.63c-2.16,0-3.9,1.75-3.9,3.9v0C10.73,39.6,12.47,41.35,14.63,41.35z"/>
			
				<linearGradient id="SVGID_00000047767685603497209710000018310455017739041430_" gradientUnits="userSpaceOnUse" x1="7.5013" y1="-0.6539" x2="34.1602" y2="10.8904">
				<stop  offset="3.738020e-07" style="stop-color:#4680FD"/>
				<stop  offset="0.1934" style="stop-color:#4A83FD"/>
				<stop  offset="0.3946" style="stop-color:#578DFD"/>
				<stop  offset="0.5994" style="stop-color:#6B9DFE"/>
				<stop  offset="0.8052" style="stop-color:#88B4FE"/>
				<stop  offset="1" style="stop-color:#ABCFFF"/>
			</linearGradient>
			<path style="fill:url(#SVGID_00000047767685603497209710000018310455017739041430_);" d="M9.63,8.77l21.25,0
				c2.16,0,3.9-1.75,3.9-3.9v0c0-2.16-1.75-3.9-3.9-3.9l-21.25,0c-2.16,0-3.9,1.75-3.9,3.9v0C5.72,7.02,7.47,8.77,9.63,8.77z"/>
			
				<linearGradient id="SVGID_00000103238705347927473400000003031776574533893028_" gradientUnits="userSpaceOnUse" x1="0.9108" y1="16.9968" x2="18.5513" y2="16.9968">
				<stop  offset="3.738020e-07" style="stop-color:#4680FD"/>
				<stop  offset="0.2376" style="stop-color:#4983FD"/>
				<stop  offset="0.4292" style="stop-color:#538AFD"/>
				<stop  offset="0.6048" style="stop-color:#6498FE"/>
				<stop  offset="0.7707" style="stop-color:#7CAAFE"/>
				<stop  offset="0.9285" style="stop-color:#9BC2FF"/>
				<stop  offset="1" style="stop-color:#ABCFFF"/>
			</linearGradient>
			<path style="fill:url(#SVGID_00000103238705347927473400000003031776574533893028_);" d="M4.81,20.9h9.83
				c2.16,0,3.9-1.75,3.9-3.9v0c0-2.16-1.75-3.9-3.9-3.9l-9.83,0c-2.16,0-3.9,1.75-3.9,3.9v0C0.91,19.15,2.66,20.9,4.81,20.9z"/>
			<circle class="st11" cx="31.89" cy="21.19" r="4.97"/>
			<path class="st11" d="M51.13,21.17c0,1.85-0.24,3.63-0.72,5.34c-0.48,1.71-1.16,3.32-2.03,4.81c-0.87,1.5-1.92,2.86-3.15,4.09
				c-1.23,1.23-2.59,2.29-4.08,3.17c-1.49,0.88-3.09,1.56-4.81,2.04c-1.72,0.48-3.51,0.72-5.36,0.72c-1.85,0-3.63-0.24-5.34-0.72
				c-1.71-0.48-3.32-1.16-4.81-2.04c-1.5-0.88-2.86-1.94-4.09-3.17c-1.23-1.23-2.29-2.6-3.17-4.09c-0.88-1.5-1.56-3.1-2.04-4.81
				c-0.48-1.71-0.72-3.49-0.72-5.34c0-1.85,0.24-3.64,0.72-5.36c0.48-1.72,1.16-3.33,2.04-4.81c0.88-1.49,1.94-2.85,3.17-4.08
				c1.23-1.23,2.6-2.28,4.09-3.15c1.5-0.87,3.1-1.55,4.81-2.03c1.71-0.48,3.49-0.72,5.34-0.72c1.85,0,3.64,0.24,5.36,0.72
				c1.72,0.48,3.33,1.16,4.81,2.03c1.49,0.87,2.85,1.92,4.08,3.15c1.23,1.23,2.28,2.59,3.15,4.08c0.87,1.49,1.55,3.09,2.03,4.81
				C50.89,17.54,51.13,19.32,51.13,21.17z M43.38,21.17c0-1.7-0.33-3.31-0.98-4.83c-0.65-1.51-1.54-2.83-2.65-3.94
				c-1.11-1.12-2.43-2-3.94-2.65c-1.51-0.65-3.12-0.98-4.83-0.98c-1.72,0-3.34,0.33-4.84,0.98c-1.51,0.65-2.82,1.54-3.94,2.65
				c-1.12,1.12-2.01,2.43-2.67,3.94c-0.65,1.51-0.98,3.12-0.98,4.83c0,1.7,0.33,3.3,0.98,4.8c0.65,1.5,1.54,2.81,2.67,3.93
				c1.12,1.12,2.44,2.01,3.94,2.67c1.5,0.65,3.12,0.98,4.84,0.98c1.7,0,3.31-0.33,4.83-0.98c1.51-0.65,2.83-1.54,3.94-2.67
				c1.12-1.12,2-2.43,2.65-3.93C43.06,24.48,43.38,22.88,43.38,21.17z"/>
		</g>
	</g>
</g>
</svg>
