<?xml version="1.0" encoding="utf-8"?>
<!-- Generator: Adobe Illustrator 26.0.2, SVG Export Plug-In . SVG Version: 6.00 Build 0)  -->
<svg version="1.1" id="Capa_1" xmlns="http://www.w3.org/2000/svg" xmlns:xlink="http://www.w3.org/1999/xlink" x="0px" y="0px"
	 viewBox="0 0 288.13 138.92" style="enable-background:new 0 0 288.13 138.92;" xml:space="preserve">
<style type="text/css">
	.st0{fill:#4680FD;}
	.st1{fill:url(#SVGID_1_);}
</style>
<path class="st0" d="M298.69-38.83L294.51-43c1.1-1.09,2.19-2.19,3.28-3.28l0.88-0.88c0.08-0.08,0.15-0.16,0.22-0.24
	c0.35-0.48,0.4-1.08,0.13-1.61c-0.25-0.49-0.73-0.8-1.27-0.83c-0.02,0-0.04,0-0.06,0c-0.44,0-0.84,0.17-1.17,0.5l-5.16,5.16
	c-0.72,0.73-0.72,1.62,0,2.35l5.14,5.14c0.07,0.07,0.15,0.14,0.23,0.21c0.27,0.21,0.6,0.32,0.93,0.32c0.16,0,0.31-0.02,0.47-0.07
	c0.48-0.15,0.85-0.54,0.99-1.02C299.22-37.58,299.29-38.22,298.69-38.83z M297.29-37.31C297.29-37.31,297.29-37.31,297.29-37.31
	L297.29-37.31L297.29-37.31z"/>
<linearGradient id="SVGID_1_" gradientUnits="userSpaceOnUse" x1="288.0298" y1="69.3731" x2="0" y2="69.3731">
	<stop  offset="3.738020e-07" style="stop-color:#4680FD"/>
	<stop  offset="1" style="stop-color:#ABCFFF"/>
</linearGradient>
<path class="st1" d="M218.66,138.75H0L0,0l218.66,0c38.31,0,69.37,31.06,69.37,69.37v0C288.03,107.69,256.97,138.75,218.66,138.75z"
	/>
</svg>
