<?xml version="1.0" encoding="utf-8"?>
<!-- Generator: Adobe Illustrator 26.0.2, SVG Export Plug-In . SVG Version: 6.00 Build 0)  -->
<svg version="1.1" id="Capa_1" xmlns="http://www.w3.org/2000/svg" xmlns:xlink="http://www.w3.org/1999/xlink" x="0px" y="0px"
	 viewBox="0 0 14 14" style="enable-background:new 0 0 14 14;" xml:space="preserve">
<style type="text/css">
	.st0{fill:#4680FD;}
</style>
<g>
	<g>
		<path class="st0" d="M7.63,7.49c0.66,0.01,1.32,0,1.98,0c0.62,0,1.23,0,1.85,0c0.77,0,1.24-0.47,1.24-1.25c0-0.63,0-1.26,0-1.89
			c0-0.14,0.04-0.2,0.17-0.25c0.82-0.31,1.29-1.21,1.09-2.06c-0.21-0.88-1.04-1.47-1.91-1.38c-0.85,0.09-1.5,0.74-1.61,1.59
			c-0.1,0.79,0.39,1.58,1.17,1.87c0.1,0.04,0.13,0.08,0.13,0.18c-0.01,0.66,0,1.31,0,1.97c0,0.19-0.05,0.24-0.24,0.24
			c-1.29,0-2.57,0-3.86,0c-0.11,0-0.13-0.03-0.13-0.13c0.01-0.68,0.01-1.35,0-2.03c0-0.13,0.03-0.2,0.16-0.25
			c0.95-0.36,1.4-1.45,0.99-2.37C8.23,0.8,7.14,0.39,6.23,0.84C5.55,1.18,5.19,1.75,5.22,2.51c0.03,0.78,0.44,1.32,1.17,1.61
			c0.1,0.04,0.13,0.08,0.13,0.19C6.51,5,6.51,5.68,6.52,6.37c0,0.13-0.04,0.15-0.15,0.14c-1.31,0-2.62,0-3.94,0
			c-0.11,0-0.15-0.02-0.15-0.15c0.01-0.69,0.01-1.37,0-2.06c0-0.11,0.03-0.15,0.14-0.19c0.78-0.28,1.28-1.11,1.16-1.89
			C3.44,1.36,2.77,0.71,1.92,0.66C1.03,0.6,0.24,1.2,0.05,2.07c-0.19,0.87,0.28,1.74,1.13,2.05c0.11,0.04,0.13,0.09,0.13,0.2
			c0,1.78,0,3.56,0,5.34c0,0.14-0.04,0.2-0.17,0.25c-0.78,0.29-1.26,1.14-1.11,1.94c0.16,0.87,0.88,1.49,1.73,1.5
			c0.88,0.01,1.65-0.6,1.8-1.45c0.16-0.87-0.32-1.72-1.15-2.02C2.31,9.84,2.28,9.8,2.28,9.7c0.01-0.69,0.01-1.38,0-2.07
			c0-0.11,0.02-0.14,0.13-0.14c1.33,0,2.65,0,3.98,0c0.1,0,0.12,0.03,0.12,0.12c0,0.69-0.01,1.38,0,2.07c0,0.12-0.04,0.16-0.14,0.2
			C5.47,10.23,5,11.22,5.3,12.12c0.31,0.92,1.28,1.42,2.21,1.15c0.73-0.22,1.25-0.89,1.28-1.66c0.03-0.75-0.45-1.47-1.18-1.73
			C7.52,9.84,7.49,9.8,7.49,9.7c0.01-0.69,0.01-1.38,0-2.07C7.49,7.5,7.52,7.49,7.63,7.49z M11.4,2.45c0-0.45,0.36-0.81,0.81-0.82
			c0.45,0,0.81,0.36,0.81,0.81c0,0.46-0.35,0.81-0.81,0.81C11.76,3.25,11.4,2.9,11.4,2.45z M0.98,2.45c0-0.45,0.36-0.82,0.8-0.82
			c0.45,0,0.82,0.36,0.82,0.81c0,0.45-0.35,0.81-0.81,0.81C1.34,3.25,0.99,2.91,0.98,2.45z M2.61,11.56c0,0.45-0.37,0.81-0.82,0.81
			c-0.45,0-0.81-0.36-0.81-0.82c0-0.46,0.35-0.8,0.81-0.8C2.25,10.75,2.61,11.11,2.61,11.56z M7.82,11.56
			C7.81,12.01,7.44,12.37,7,12.37c-0.45,0-0.81-0.38-0.81-0.82c0-0.46,0.37-0.8,0.84-0.8C7.46,10.75,7.82,11.12,7.82,11.56z M7,3.25
			c-0.46,0-0.82-0.35-0.82-0.8C6.19,2,6.55,1.63,7,1.63c0.45,0,0.81,0.36,0.82,0.81C7.82,2.89,7.46,3.25,7,3.25z"/>
		<path class="st0" d="M12.21,9.77c-0.99,0-1.79,0.8-1.79,1.79c0,0.98,0.81,1.78,1.78,1.78c0.99,0,1.79-0.8,1.79-1.79
			C14,10.57,13.2,9.77,12.21,9.77z M12.21,12.37c-0.45,0-0.82-0.36-0.82-0.81c0-0.45,0.36-0.81,0.81-0.82c0.45,0,0.81,0.35,0.82,0.8
			C13.02,12,12.66,12.37,12.21,12.37z"/>
	</g>
</g>
</svg>
