<?xml version="1.0" encoding="utf-8"?>
<!-- Generator: Adobe Illustrator 26.0.2, SVG Export Plug-In . SVG Version: 6.00 Build 0)  -->
<svg version="1.1" id="Capa_1" xmlns="http://www.w3.org/2000/svg" xmlns:xlink="http://www.w3.org/1999/xlink" x="0px" y="0px"
	 viewBox="0 0 14 14" style="enable-background:new 0 0 14 14;" xml:space="preserve">
<style type="text/css">
	.st0{fill:#4680FD;}
</style>
<path class="st0" d="M12.42,11.34c-0.04-0.79-0.23-1.53-0.6-2.23C11.2,7.94,10.28,7.1,9.05,6.58C9.02,6.57,8.99,6.55,8.94,6.53
	c0.08-0.06,0.14-0.12,0.21-0.17c0.33-0.28,0.6-0.61,0.78-1c0.44-0.89,0.5-1.81,0.11-2.73C9.63,1.65,8.9,1.01,7.87,0.7
	C7.68,0.65,7.49,0.64,7.3,0.59c-0.22,0-0.43,0-0.65,0C6.64,0.62,6.61,0.61,6.59,0.61C6.38,0.65,6.16,0.68,5.96,0.76
	c-1.22,0.45-1.98,1.32-2.2,2.61C3.59,4.41,3.89,5.33,4.6,6.11c0.14,0.15,0.3,0.28,0.47,0.42C4.54,6.74,4.06,7.01,3.63,7.36
	C2.6,8.2,1.94,9.27,1.68,10.57c-0.09,0.44-0.15,0.88-0.08,1.32c0.14,0.9,0.89,1.52,1.82,1.52c2.33,0,4.65,0,6.98,0
	c0.1,0,0.21,0,0.31,0c0.61-0.04,1.09-0.32,1.43-0.84C12.39,12.2,12.45,11.78,12.42,11.34z M4.7,3.87c0-1.26,1.04-2.3,2.3-2.3
	c1.26,0,2.3,1.04,2.3,2.3c0,1.26-1.03,2.3-2.3,2.3C5.74,6.18,4.7,5.14,4.7,3.87z M10.55,12.43c-1.18-0.01-2.36,0-3.54,0
	c-1.18,0-2.35,0-3.53,0c-0.29,0-0.54-0.08-0.73-0.32c-0.11-0.14-0.17-0.29-0.18-0.47c-0.01-0.78,0.18-1.52,0.56-2.2
	c0.48-0.85,1.16-1.48,2.05-1.88C5.97,7.2,6.79,7.09,7.65,7.22c0.76,0.11,1.44,0.4,2.05,0.86c0.82,0.63,1.36,1.45,1.62,2.46
	c0.08,0.32,0.11,0.65,0.13,0.98C11.48,11.98,11.14,12.43,10.55,12.43z"/>
</svg>
